<svg width="20" height="20" viewBox="0 0 20 20" fill="none" xmlns="http://www.w3.org/2000/svg">
<g clip-path="url(#clip0_1787_8)">
<path d="M13.1021 2.42459L14.3641 0.555334C14.4738 0.392912 14.4306 0.170334 14.2682 0.0606463C14.1058 -0.0490022 13.8832 -0.00579907 13.7735 0.156584L12.4701 2.08713C11.7175 1.74365 10.881 1.55225 10 1.55225C9.11902 1.55225 8.28254 1.74365 7.52992 2.08717L6.22648 0.156584C6.11683 -0.00579907 5.89422 -0.0490022 5.73183 0.0606463C5.56941 0.170334 5.52625 0.392873 5.6359 0.555334L6.89793 2.42459C5.31347 3.3933 4.21566 5.08022 4.06168 7.03303H15.9384C15.7844 5.08022 14.6865 3.39338 13.1021 2.42459ZM7.57621 5.23401C7.11707 5.23401 6.74484 4.86182 6.74484 4.40264C6.74484 3.94346 7.11707 3.57127 7.57621 3.57127C8.03535 3.57127 8.40757 3.94346 8.40757 4.40264C8.40757 4.86182 8.03535 5.23401 7.57621 5.23401ZM12.4238 5.23401C11.9647 5.23401 11.5925 4.86182 11.5925 4.40264C11.5925 3.94346 11.9647 3.57127 12.4238 3.57127C12.883 3.57127 13.2552 3.94346 13.2552 4.40264C13.2552 4.86182 12.883 5.23401 12.4238 5.23401Z" fill="white"/>
<path d="M3.97083 9.53929V16.4073C3.97083 16.9465 4.41145 17.3871 4.95067 17.3871H6.57067V18.9905C6.57067 19.5451 7.02438 20 7.5802 20C8.13481 20 8.58973 19.5451 8.58973 18.9905V17.3871H11.4402V18.9905C11.4402 19.5451 11.8939 20 12.4497 20C13.0043 20 13.4592 19.5451 13.4592 18.9905V17.3871H14.8678C15.4058 17.3871 15.8476 16.9465 15.8476 16.4073V9.53929V8.08441H3.97083V9.53929Z" fill="white"/>
<path d="M1.82617 8.08441C1.18453 8.08441 0.659607 8.60933 0.659607 9.25097V13.0937C0.659607 13.7353 1.18457 14.2603 1.82617 14.2603C2.46777 14.2603 2.99273 13.7353 2.99273 13.0937V9.25097C2.99273 8.60937 2.46777 8.08441 1.82617 8.08441Z" fill="white"/>
<path d="M18.1739 8.08441C17.5323 8.08441 17.0073 8.60933 17.0073 9.25097V13.0937C17.0073 13.7353 17.5323 14.2603 18.1739 14.2603C18.8155 14.2603 19.3404 13.7353 19.3404 13.0937V9.25097C19.3404 8.60937 18.8154 8.08441 18.1739 8.08441Z" fill="white"/>
</g>
<defs>
<clipPath id="clip0_1787_8">
<rect width="20" height="20" fill="white"/>
</clipPath>
</defs>
</svg>
