<svg width="12" height="12" viewBox="0 0 12 12" fill="none" xmlns="http://www.w3.org/2000/svg">
<path d="M7.09936 5.99998L11.772 1.32727C12.0761 1.02332 12.0761 0.531869 11.772 0.22796C11.4681 -0.0759865 10.9766 -0.0759865 10.6727 0.22796L5.99995 4.90064L1.32738 0.22796C1.02328 -0.0759865 0.532015 -0.0759865 0.228069 0.22796C-0.0760229 0.531906 -0.0760229 1.02332 0.228069 1.32727L4.9006 5.99998L0.228105 10.6727C-0.0759865 10.9766 -0.0759865 11.4681 0.228105 11.772C0.300203 11.8443 0.385876 11.9016 0.480204 11.9407C0.574531 11.9798 0.675653 11.9999 0.777759 11.9997C0.976745 11.9997 1.1758 11.9236 1.32741 11.772L5.99995 7.09929L10.6727 11.772C10.7448 11.8443 10.8305 11.9016 10.9248 11.9407C11.0191 11.9798 11.1202 11.9998 11.2224 11.9997C11.4213 11.9997 11.6204 11.9236 11.772 11.772C12.0761 11.468 12.0761 10.9766 11.772 10.6727L7.09936 5.99998Z" fill="white"/>
</svg>
