<svg width="24" height="24" viewBox="0 0 24 24" fill="none" xmlns="http://www.w3.org/2000/svg">
<path d="M19.05 7.605L16.2975 10.3583C16.635 11.0108 16.8225 11.7533 16.8225 12.5333C16.8225 15.1883 14.6543 17.3558 11.9993 17.3558C11.2193 17.3558 10.4768 17.1683 9.82425 16.8308L7.82175 18.834C9.14925 19.2765 10.5593 19.5165 11.9993 19.5165C16.3193 19.5165 20.3693 17.394 22.8368 13.8465C23.115 13.449 23.25 12.9915 23.25 12.534C23.25 12.0765 23.115 11.619 22.8375 11.2215C21.83 9.77465 20.542 8.5443 19.05 7.605Z" fill="black"/>
<path d="M11.9993 15.8565C13.8293 15.8565 15.3218 14.364 15.3218 12.534C15.3218 12.174 15.2618 11.829 15.1568 11.499L10.9643 15.6915C11.2943 15.7965 11.6393 15.8565 11.9993 15.8565ZM19.7025 3.765C19.6331 3.69547 19.5507 3.64031 19.46 3.60268C19.3692 3.56504 19.272 3.54567 19.1738 3.54567C19.0755 3.54567 18.9783 3.56504 18.8875 3.60268C18.7968 3.64031 18.7144 3.69547 18.645 3.765L16.1775 6.2325C14.85 5.79 13.4393 5.55 11.9993 5.55C7.67925 5.55 3.6285 7.6725 1.161 11.2207C0.893585 11.6062 0.750286 12.0641 0.750286 12.5332C0.750286 13.0024 0.893585 13.4603 1.161 13.8457C2.1885 15.3157 3.4785 16.5382 4.9485 17.4607L3.231 19.179C3.12634 19.2837 3.05517 19.4172 3.02652 19.5625C2.99787 19.7078 3.01305 19.8583 3.07011 19.9949C3.12717 20.1315 3.22355 20.2481 3.34701 20.3299C3.47047 20.4116 3.61544 20.4548 3.7635 20.454C3.9585 20.454 4.146 20.3865 4.296 20.2365L19.7025 4.83C19.995 4.5375 19.995 4.0575 19.7025 3.765ZM13.0343 9.375C12.7043 9.27 12.3593 9.21075 11.9993 9.21075C10.1693 9.21075 8.67675 10.7032 8.67675 12.5332C8.67675 12.8932 8.73675 13.2382 8.84175 13.5682L7.70175 14.7082C7.36425 14.0557 7.17675 13.3132 7.17675 12.5332C7.17675 9.87825 9.34425 7.71075 11.9993 7.71075C12.7793 7.71075 13.5218 7.89825 14.1743 8.23575L13.0343 9.375Z" fill="black"/>
</svg>
