<svg width="24" height="24" viewBox="0 0 24 24" fill="none" xmlns="http://www.w3.org/2000/svg">
<g clip-path="url(#clip0_1_2)">
<path d="M23.7322 11.0761C22.4821 9.03144 20.8011 7.38858 18.6896 6.14755C16.578 4.90647 14.3482 4.28586 12 4.28586C9.65177 4.28586 7.42189 4.90624 5.31027 6.14755C3.1986 7.38858 1.51775 9.03144 0.267758 11.0761C0.0892685 11.3885 1.36234e-07 11.6966 1.36234e-07 12.0002C1.36234e-07 12.3039 0.0892685 12.6119 0.267758 12.9243C1.51775 14.969 3.1986 16.612 5.31027 17.8528C7.42189 19.094 9.65177 19.7141 12 19.7141C14.3483 19.7141 16.5781 19.0961 18.6896 17.8595C20.8011 16.623 22.4823 14.9778 23.7322 12.9243C23.9108 12.6119 24 12.304 24 12.0002C24 11.6966 23.9108 11.3885 23.7322 11.0761ZM9.12704 7.41307C9.92609 6.61402 10.8837 6.21435 11.9999 6.21435C12.1783 6.21435 12.3302 6.27702 12.4553 6.40194C12.5802 6.52691 12.6429 6.67875 12.6429 6.85729C12.6429 7.03597 12.5802 7.18772 12.4556 7.3125C12.3307 7.4376 12.1787 7.50009 12.0002 7.50009C11.2324 7.50009 10.5759 7.77254 10.0314 8.31706C9.4866 8.86191 9.21439 9.51808 9.21439 10.2859C9.21439 10.4647 9.15172 10.6163 9.0268 10.7414C8.90169 10.8665 8.74999 10.929 8.57145 10.929C8.39277 10.929 8.24102 10.8664 8.11596 10.7414C7.99085 10.6163 7.92837 10.4645 7.92837 10.2859C7.92837 9.16992 8.32804 8.21217 9.12704 7.41307ZM17.8193 16.3732C16.029 17.4578 14.0893 18.0004 12 18.0004C9.91071 18.0004 7.97101 17.4581 6.18086 16.3732C4.39071 15.2883 2.90185 13.8307 1.71439 12.0002C3.07153 9.89302 4.77241 8.31701 6.81704 7.27258C6.27243 8.20101 6.00002 9.20557 6.00002 10.2858C6.00002 11.9378 6.58719 13.3504 7.76119 14.5247C8.93518 15.6989 10.3483 16.2858 12 16.2858C13.6519 16.2858 15.0645 15.6986 16.2388 14.5247C17.4131 13.3507 18 11.9378 18 10.2858C18 9.20557 17.7276 8.20087 17.1829 7.27258C19.2275 8.31701 20.9284 9.89316 22.2855 12.0002C21.0982 13.8307 19.6095 15.2883 17.8193 16.3732Z" fill="black"/>
</g>
<defs>
<clipPath id="clip0_1_2">
<rect width="24" height="24" fill="white"/>
</clipPath>
</defs>
</svg>
