<svg width="20" height="20" viewBox="0 0 20 20" fill="none" xmlns="http://www.w3.org/2000/svg">
<path d="M8.98038 0.00377074C6.59986 0.00775894 4.31798 0.954562 2.6347 2.63674C0.951416 4.31892 0.00399082 6.5993 0 8.97825C0.00198956 11.3592 0.948292 13.6423 2.63158 15.3273C4.31486 17.0123 6.59786 17.9618 8.98038 17.9678C11.0934 17.9678 13.0404 17.225 14.5799 15.9957L18.3192 19.7325C18.5086 19.9086 18.759 20.0044 19.0176 19.9998C19.2762 19.9953 19.523 19.8908 19.7062 19.7083C19.8893 19.5257 19.9946 19.2794 19.9998 19.0209C20.005 18.7625 19.9098 18.5121 19.7342 18.3223L15.9949 14.5816C17.272 12.9944 17.9682 11.0188 17.9683 8.98202C17.9683 4.03475 13.9309 0.00377074 8.98038 0.00377074ZM8.98038 2.00229C12.8517 2.00229 15.9685 5.11319 15.9685 8.97825C15.9685 12.8433 12.8517 15.9731 8.98038 15.9731C5.109 15.9731 1.99606 12.8546 1.99606 8.98579C1.99606 5.11696 5.109 2.00229 8.98038 2.00229Z" fill="#A0A0A0"/>
</svg>
