<svg xmlns="http://www.w3.org/2000/svg" width="24" height="20" viewBox="0 0 24 20">
  <path id="tv" d="M7.293,2.293a1,1,0,0,1,1.414,0L12,5.586l2.293-2.293a1,1,0,0,1,1.414,1.414L14.414,6H21a3,3,0,0,1,3,3v8a3,3,0,0,1-3,3h-.586l.293.293a1,1,0,0,1-1.414,1.414L17.586,20H6.414L4.707,21.707a1,1,0,1,1-1.414-1.414L3.586,20H3a3,3,0,0,1-3-3V9A3,3,0,0,1,3,6H9.586L7.293,3.707A1,1,0,0,1,7.293,2.293ZM3,8A1,1,0,0,0,2,9v8a1,1,0,0,0,1,1H21a1,1,0,0,0,1-1V9a1,1,0,0,0-1-1Z" transform="translate(0 -2)" fill="#fff" fill-rule="evenodd"/>
</svg>
