<svg width="23" height="44" viewBox="0 0 23 44" fill="none" xmlns="http://www.w3.org/2000/svg">
<g clip-path="url(#clip0_1_2)">
<path d="M22.9999 20.7286C23.0029 23.8467 21.8041 26.8391 19.6659 29.0508L2.08045 44L8.26235 32.1538C4.41046 29.6637 -0.00105429 26.4852 -0.00105429 20.7286C-0.00272683 19.0742 0.334085 17.4378 0.987582 15.9259C1.64107 14.414 2.59663 13.0602 3.79216 11.9526L19.2276 -0.00195312L14.7544 9.38596C19.9651 10.513 22.9999 15.0404 22.9999 20.7286Z" fill="#C7C7C7"/>
<path d="M7.04525 25.6665C6.91612 25.6665 6.81525 25.634 6.74261 25.5688C6.66998 25.5036 6.61753 25.4221 6.58525 25.3243L3.99472 17.4777C3.97858 17.4369 3.97051 17.4003 3.97051 17.3677C3.97051 17.2943 3.99472 17.2332 4.04314 17.1843C4.09156 17.1354 4.15209 17.111 4.22472 17.111H5.28998C5.40296 17.111 5.4877 17.1436 5.54419 17.2088C5.60875 17.2658 5.64911 17.3228 5.66525 17.3799L7.71104 23.6743L9.74472 17.3799C9.76893 17.3228 9.80928 17.2658 9.86577 17.2088C9.93033 17.1436 10.0191 17.111 10.1321 17.111H11.1974C11.2619 17.111 11.3184 17.1354 11.3668 17.1843C11.4233 17.2332 11.4516 17.2943 11.4516 17.3677C11.4516 17.4003 11.4435 17.4369 11.4274 17.4777L8.83682 25.3243C8.80454 25.4221 8.75209 25.5036 8.67946 25.5688C8.60682 25.634 8.50595 25.6665 8.37682 25.6665H7.04525Z" fill="black" fill-opacity="0.7"/>
<path d="M15.3905 25.7888C14.64 25.7888 14.0105 25.6788 13.5021 25.4588C13.0017 25.2306 12.6184 24.9373 12.3521 24.5788C12.0938 24.2121 11.9566 23.8291 11.9405 23.4299C11.9405 23.3565 11.9647 23.2954 12.0131 23.2465C12.0616 23.1977 12.1221 23.1732 12.1947 23.1732H13.2721C13.377 23.1732 13.4537 23.1977 13.5021 23.2465C13.5586 23.2873 13.607 23.3403 13.6473 23.4054C13.6958 23.5603 13.7886 23.7151 13.9258 23.8699C14.063 24.0165 14.2486 24.1388 14.4826 24.2365C14.7247 24.3343 15.0273 24.3832 15.3905 24.3832C15.9716 24.3832 16.4033 24.2854 16.6858 24.0899C16.9763 23.8943 17.1216 23.6295 17.1216 23.2954C17.1216 23.0591 17.0449 22.8717 16.8916 22.7332C16.7382 22.5865 16.5001 22.4562 16.1773 22.3421C15.8626 22.2199 15.443 22.0936 14.9184 21.9632C14.3131 21.8165 13.8047 21.6414 13.3931 21.4377C12.9896 21.2258 12.683 20.961 12.4731 20.6432C12.2714 20.3254 12.1705 19.9221 12.1705 19.4332C12.1705 18.9606 12.2956 18.541 12.5458 18.1743C12.804 17.8077 13.1672 17.5184 13.6352 17.3065C14.1114 17.0947 14.6763 16.9888 15.33 16.9888C15.8545 16.9888 16.3186 17.0621 16.7221 17.2088C17.1256 17.3473 17.4605 17.5347 17.7268 17.771C17.9931 17.9991 18.1949 18.2477 18.3321 18.5165C18.4773 18.7773 18.554 19.034 18.5621 19.2865C18.5621 19.3517 18.5379 19.4128 18.4894 19.4699C18.4491 19.5188 18.3886 19.5432 18.3079 19.5432H17.1821C17.1175 19.5432 17.053 19.5269 16.9884 19.4943C16.9238 19.4617 16.8714 19.4006 16.831 19.311C16.7826 19.0584 16.6252 18.8425 16.3589 18.6632C16.0926 18.484 15.7496 18.3943 15.33 18.3943C14.8942 18.3943 14.5431 18.4758 14.2768 18.6388C14.0105 18.8017 13.8773 19.0543 13.8773 19.3965C13.8773 19.6247 13.9419 19.8162 14.071 19.971C14.2082 20.1177 14.4221 20.248 14.7126 20.3621C15.0112 20.4762 15.4026 20.5984 15.8868 20.7288C16.5728 20.8836 17.1337 21.0628 17.5694 21.2665C18.0052 21.4703 18.324 21.731 18.5258 22.0488C18.7275 22.3584 18.8284 22.7536 18.8284 23.2343C18.8284 23.7721 18.6831 24.2325 18.3926 24.6154C18.1102 24.9903 17.7107 25.2795 17.1942 25.4832C16.6777 25.6869 16.0765 25.7888 15.3905 25.7888Z" fill="black" fill-opacity="0.7"/>
</g>
<defs>
<clipPath id="clip0_1_2">
<rect width="23" height="44" fill="white"/>
</clipPath>
</defs>
</svg>
