<svg id="info-notification" xmlns="http://www.w3.org/2000/svg" width="65" height="65" viewBox="0 0 65 65">
  <rect id="Rectangle_1" data-name="Rectangle 1" width="55" height="55" rx="27.5" transform="translate(5 5)" fill="#e4cca2"/>
  <rect id="Rectangle_2" data-name="Rectangle 2" width="65" height="65" rx="32.5" fill="rgba(255,255,255,0.9)"/>
  <path id="Path_6" data-name="Path 6" d="M41.591,37.23,40.232,35.3a1.559,1.559,0,0,1-.286-.9V28.856A7.811,7.811,0,0,0,37.618,23.3a8.01,8.01,0,0,0-11.237,0,7.811,7.811,0,0,0-2.327,5.555V34.4a1.559,1.559,0,0,1-.286.9L22.409,37.23a1.562,1.562,0,0,0,.311,2.368,1.6,1.6,0,0,0,.865.255h4.521a3.92,3.92,0,0,0,1.379,2.26,4.008,4.008,0,0,0,5.029,0,3.92,3.92,0,0,0,1.379-2.26h4.521a1.6,1.6,0,0,0,.864-.255,1.575,1.575,0,0,0,.585-.679,1.557,1.557,0,0,0-.273-1.689ZM32,41.425a2.4,2.4,0,0,1-1.372-.434,2.359,2.359,0,0,1-.868-1.137h4.481a2.359,2.359,0,0,1-.868,1.137A2.4,2.4,0,0,1,32,41.425Zm-8.415-3.142a.637.637,0,0,0,.1-.11l1.391-1.98a3.119,3.119,0,0,0,.572-1.791V28.856a6.249,6.249,0,0,1,1.862-4.444,6.408,6.408,0,0,1,8.99,0,6.249,6.249,0,0,1,1.862,4.444V34.4a3.119,3.119,0,0,0,.572,1.791l1.39,1.98a.637.637,0,0,0,.1.11Z" fill="#b7862f"/>
  <path id="Path_7" data-name="Path 7" d="M32,28v6" fill="none" stroke="#b7862f" stroke-linecap="round" stroke-linejoin="round" stroke-width="1.3"/>
  <path id="Path_8" data-name="Path 8" d="M29,31h6" fill="none" stroke="#b7862f" stroke-linecap="round" stroke-linejoin="round" stroke-width="1.3"/>
</svg>
