<svg width="40" height="40" viewBox="0 0 40 40" fill="none" xmlns="http://www.w3.org/2000/svg">
<path d="M38.25 5.5V4.5C38.25 2 36.25 0 33.75 0C32.5 0 31.5 0.5 30.5 1.25C29.75 2 29.25 3.25 29.25 4.5V5.5C28.25 5.5 27.5 6.25 27.5 7.25V14.5C27.5 15.5 28.25 16.25 29.25 16.25H38.25C39.25 16.25 40 15.5 40 14.5V7.25C40 6.25 39.25 5.5 38.25 5.5ZM36.75 5.5H30.5V4.5C30.25 2.75 31.5 1.25 33.25 1C35 0.75 36.5 2 36.75 3.75C36.75 4 36.75 4 36.75 4.25V5.5ZM32.5 20C32.5 20.5 32.75 21.25 32.75 21.75C32.75 25.5 31.5 29 29 31.5C28.5 30 27.25 29 25.5 29H23.75V23.5C23.75 22.5 23 21.75 22 21.75H11V18.25H14.75C15.75 18.25 16.5 17.5 16.5 16.5V12.75H20C22 12.75 23.75 11.25 23.75 9.25V4.5C22 4 20 3.5 18.25 3.5C8.25 3.5 0 11.75 0 21.75C0 31.75 8.25 40 18.25 40C28.25 40 36.5 31.75 36.5 21.75V20H32.5ZM16.5 36.25C9.25 35.25 3.75 29.25 3.75 21.75C3.75 20.75 4 19.5 4.25 18.5L13 27.25V29C13 31 14.75 32.5 16.75 32.5V36.25H16.5Z" fill="white"/>
</svg>
