<svg width="42" height="42" viewBox="0 0 42 42" fill="none" xmlns="http://www.w3.org/2000/svg">
<path d="M21 41C32.0457 41 41 32.0457 41 21C41 9.9543 32.0457 1 21 1C9.9543 1 1 9.9543 1 21C1 32.0457 9.9543 41 21 41Z" stroke="white"/>
<path d="M15.4783 24.8992V26.1612H9.40089V24.8992H11.7235V17.916C11.7235 17.6683 11.7312 17.4154 11.7467 17.1573L9.95831 18.667C9.88089 18.7289 9.80089 18.7702 9.71831 18.7909C9.64089 18.8063 9.56605 18.8063 9.49379 18.7909C9.4267 18.7754 9.36476 18.7521 9.30799 18.7212C9.25637 18.6851 9.21508 18.6463 9.18411 18.6051L8.66541 17.8773L12.0254 14.9896H13.3803V24.8992H15.4783ZM20.9995 24.9689C21.335 24.9689 21.6343 24.9225 21.8975 24.8296C22.1608 24.7315 22.3801 24.5973 22.5556 24.427C22.7363 24.2515 22.873 24.0451 22.9659 23.8076C23.0588 23.5702 23.1053 23.3122 23.1053 23.0334C23.1053 22.6928 23.0511 22.3986 22.9427 22.1509C22.8395 21.9031 22.6924 21.6992 22.5014 21.5392C22.3156 21.3741 22.0937 21.2528 21.8356 21.1754C21.5775 21.0928 21.2988 21.0515 20.9995 21.0515C20.7001 21.0515 20.4214 21.0928 20.1634 21.1754C19.9053 21.2528 19.6808 21.3741 19.4898 21.5392C19.304 21.6992 19.1569 21.9031 19.0485 22.1509C18.9453 22.3986 18.8937 22.6928 18.8937 23.0334C18.8937 23.3122 18.9401 23.5702 19.033 23.8076C19.1259 24.0451 19.2601 24.2515 19.4356 24.427C19.6163 24.5973 19.8382 24.7315 20.1014 24.8296C20.3646 24.9225 20.664 24.9689 20.9995 24.9689ZM20.9995 16.1663C20.695 16.1663 20.4266 16.2128 20.1943 16.3057C19.9672 16.3986 19.7788 16.5225 19.6292 16.6773C19.4795 16.8321 19.3659 17.0154 19.2885 17.227C19.2163 17.4334 19.1801 17.6528 19.1801 17.8851C19.1801 18.1173 19.2111 18.3444 19.273 18.5663C19.3401 18.7883 19.4434 18.987 19.5827 19.1625C19.7272 19.3328 19.9156 19.4696 20.1479 19.5728C20.3801 19.676 20.664 19.7276 20.9995 19.7276C21.335 19.7276 21.6188 19.676 21.8511 19.5728C22.0834 19.4696 22.2692 19.3328 22.4085 19.1625C22.553 18.987 22.6563 18.7883 22.7182 18.5663C22.7853 18.3444 22.8188 18.1173 22.8188 17.8851C22.8188 17.6528 22.7801 17.4334 22.7027 17.227C22.6305 17.0154 22.5169 16.8321 22.3621 16.6773C22.2124 16.5225 22.024 16.3986 21.7969 16.3057C21.5698 16.2128 21.304 16.1663 20.9995 16.1663ZM22.7569 20.347C23.4434 20.5586 23.9569 20.8941 24.2975 21.3534C24.6434 21.8128 24.8163 22.3831 24.8163 23.0644C24.8163 23.5547 24.7234 23.9986 24.5375 24.396C24.3517 24.7934 24.0911 25.1315 23.7556 25.4102C23.4201 25.6889 23.0175 25.9057 22.5479 26.0605C22.0834 26.2102 21.5672 26.2851 20.9995 26.2851C20.4317 26.2851 19.913 26.2102 19.4434 26.0605C18.9788 25.9057 18.5788 25.6889 18.2434 25.4102C17.9079 25.1315 17.6472 24.7934 17.4614 24.396C17.2756 23.9986 17.1827 23.5547 17.1827 23.0644C17.1827 22.3831 17.353 21.8128 17.6937 21.3534C18.0395 20.8941 18.5556 20.5586 19.2421 20.347C18.6846 20.1251 18.264 19.8025 17.9801 19.3792C17.7014 18.956 17.5621 18.4476 17.5621 17.8541C17.5621 17.436 17.6446 17.0463 17.8098 16.6851C17.975 16.3238 18.2072 16.0115 18.5066 15.7483C18.8111 15.4799 19.175 15.2709 19.5982 15.1212C20.0214 14.9663 20.4885 14.8889 20.9995 14.8889C21.5105 14.8889 21.975 14.9663 22.393 15.1212C22.8163 15.2709 23.1775 15.4799 23.4769 15.7483C23.7814 16.0115 24.0163 16.3238 24.1814 16.6851C24.3517 17.0463 24.4369 17.436 24.4369 17.8541C24.4369 18.4476 24.295 18.956 24.0111 19.3792C23.7324 19.8025 23.3143 20.1251 22.7569 20.347ZM33.7285 21.5934H30.655V24.8373H29.3001V21.5934H26.2421V20.3392H29.3001V17.1031H30.655V20.3392H33.7285V21.5934Z" fill="white"/>
</svg>
